<svg width="50" height="50" viewBox="0 0 50 50" fill="none" xmlns="http://www.w3.org/2000/svg">
<g filter="url(#filter0_d_10470_347)">
<rect x="3" y="3" width="44" height="44" rx="3" fill="white" fill-opacity="0.01" shape-rendering="crispEdges"/>
</g>
<path d="M38.6653 14.7771C37.0869 12.9862 34.8974 12 32.5 12C29.1283 12 26.9936 14.0138 25.7966 15.7031C25.421 16.2333 24.5791 16.2333 24.2034 15.7031C23.0064 14.0138 20.8717 12 17.5 12C15.1026 12 12.9131 12.9863 11.3347 14.7772C9.82919 16.4856 9 18.7736 9 21.2197C9 23.8824 10.0396 26.3589 12.2716 29.0134C14.2664 31.3859 17.1362 33.8314 20.4594 36.6632C21.6977 37.7185 22.9782 38.8098 24.3416 40.0026L24.3825 40.0384C24.5592 40.1932 24.7796 40.2705 25 40.2705C25.2204 40.2705 25.4408 40.1931 25.6175 40.0384L25.6584 40.0026C27.0217 38.8098 28.3023 37.7186 29.5408 36.6631C32.8638 33.8315 35.7336 31.386 37.7284 29.0134C39.9604 26.3589 41 23.8824 41 21.2197C41 18.7736 40.1708 16.4856 38.6653 14.7771ZM28.3246 35.2361C27.881 35.6141 27.4322 35.9966 26.9758 36.3868C25.8393 37.3589 24.1607 37.3589 23.0241 36.3869C22.5678 35.9966 22.1188 35.614 21.6753 35.236C15.1716 29.6939 10.875 26.0326 10.875 21.2197C10.875 19.2303 11.5378 17.3826 12.7414 16.0169C13.9587 14.6357 15.6487 13.875 17.5 13.875C20.0706 13.875 21.7323 15.4586 22.6735 16.7871C23.5178 17.9786 23.9584 19.1798 24.1086 19.6408C24.2343 20.0268 24.5941 20.2879 25 20.2879C25.4059 20.2879 25.7657 20.0268 25.8914 19.6408C26.0416 19.1798 26.4822 17.9786 27.3265 16.7871C28.2677 15.4586 29.9294 13.875 32.5 13.875C34.3513 13.875 36.0413 14.6357 37.2586 16.0169C38.4622 17.3826 39.125 19.2303 39.125 21.2197C39.125 26.0326 34.8284 29.6939 28.3246 35.2361Z" fill="#C1C1C1"/>
<defs>
<filter id="filter0_d_10470_347" x="0" y="0" width="50" height="50" filterUnits="userSpaceOnUse" color-interpolation-filters="sRGB">
<feFlood flood-opacity="0" result="BackgroundImageFix"/>
<feColorMatrix in="SourceAlpha" type="matrix" values="0 0 0 0 0 0 0 0 0 0 0 0 0 0 0 0 0 0 127 0" result="hardAlpha"/>
<feMorphology radius="3" operator="dilate" in="SourceAlpha" result="effect1_dropShadow_10470_347"/>
<feOffset/>
<feComposite in2="hardAlpha" operator="out"/>
<feColorMatrix type="matrix" values="0 0 0 0 0.878431 0 0 0 0 0.929412 0 0 0 0 0.811765 0 0 0 1 0"/>
<feBlend mode="normal" in2="BackgroundImageFix" result="effect1_dropShadow_10470_347"/>
<feBlend mode="normal" in="SourceGraphic" in2="effect1_dropShadow_10470_347" result="shape"/>
</filter>
</defs>
</svg>
