<?xml version="1.0" encoding="UTF-8"?>
<svg xmlns="http://www.w3.org/2000/svg" xmlns:xlink="http://www.w3.org/1999/xlink" width="32px" height="32px" viewBox="0 0 32 32" version="1.1">
<g id="surface1">
<path style=" stroke:none;fill-rule:nonzero;fill:rgb(0%,0%,0%);fill-opacity:1;" d="M 16.007812 8.8125 C 11.464844 8.8125 7.800781 12.019531 7.800781 15.992188 C 7.800781 19.96875 11.464844 23.175781 16.007812 23.175781 C 20.550781 23.175781 24.214844 19.96875 24.214844 15.992188 C 24.214844 12.019531 20.550781 8.8125 16.007812 8.8125 Z M 16.007812 20.664062 C 13.070312 20.664062 10.671875 18.570312 10.671875 15.992188 C 10.671875 13.417969 13.0625 11.324219 16.007812 11.324219 C 18.949219 11.324219 21.34375 13.417969 21.34375 15.992188 C 21.34375 18.570312 18.941406 20.664062 16.007812 20.664062 Z M 26.464844 8.519531 C 26.464844 9.449219 25.605469 10.195312 24.550781 10.195312 C 23.484375 10.195312 22.636719 9.445312 22.636719 8.519531 C 22.636719 7.59375 23.492188 6.84375 24.550781 6.84375 C 25.605469 6.84375 26.464844 7.59375 26.464844 8.519531 Z M 31.898438 10.21875 C 31.777344 7.976562 31.191406 5.988281 29.3125 4.351562 C 27.441406 2.710938 25.171875 2.199219 22.605469 2.085938 C 19.964844 1.957031 12.042969 1.957031 9.398438 2.085938 C 6.84375 2.195312 4.570312 2.707031 2.691406 4.34375 C 0.8125 5.980469 0.234375 7.96875 0.105469 10.210938 C -0.0429688 12.523438 -0.0429688 19.457031 0.105469 21.769531 C 0.230469 24.011719 0.8125 26 2.691406 27.636719 C 4.570312 29.273438 6.835938 29.789062 9.398438 29.898438 C 12.042969 30.03125 19.964844 30.03125 22.605469 29.898438 C 25.171875 29.792969 27.441406 29.28125 29.3125 27.636719 C 31.1875 26 31.769531 24.011719 31.898438 21.769531 C 32.050781 19.457031 32.050781 12.53125 31.898438 10.21875 Z M 28.484375 24.25 C 27.929688 25.476562 26.851562 26.417969 25.441406 26.914062 C 23.335938 27.644531 18.335938 27.476562 16.007812 27.476562 C 13.679688 27.476562 8.671875 27.636719 6.570312 26.914062 C 5.171875 26.425781 4.09375 25.480469 3.527344 24.25 C 2.691406 22.40625 2.886719 18.03125 2.886719 15.992188 C 2.886719 13.957031 2.699219 9.574219 3.527344 7.738281 C 4.085938 6.511719 5.164062 5.570312 6.570312 5.074219 C 8.679688 4.34375 13.679688 4.511719 16.007812 4.511719 C 18.335938 4.511719 23.34375 4.351562 25.441406 5.074219 C 26.84375 5.5625 27.921875 6.507812 28.484375 7.738281 C 29.320312 9.582031 29.128906 13.957031 29.128906 15.992188 C 29.128906 18.03125 29.320312 22.414062 28.484375 24.25 Z M 28.484375 24.25 "/>
</g>
</svg>
