<?xml version="1.0" encoding="UTF-8"?>
<svg xmlns="http://www.w3.org/2000/svg" xmlns:xlink="http://www.w3.org/1999/xlink" width="32px" height="23px" viewBox="0 0 32 23" version="1.1">
<g id="surface1">
<path style=" stroke:none;fill-rule:nonzero;fill:rgb(0%,0%,0%);fill-opacity:1;" d="M 30.535156 5.574219 C 30.1875 4.511719 29.160156 3.675781 27.855469 3.390625 C 25.488281 2.875 16 2.875 16 2.875 C 16 2.875 6.511719 2.875 4.144531 3.390625 C 2.839844 3.675781 1.8125 4.511719 1.464844 5.574219 C 0.828125 7.5 0.828125 11.515625 0.828125 11.515625 C 0.828125 11.515625 0.828125 15.535156 1.464844 17.460938 C 1.8125 18.523438 2.839844 19.324219 4.144531 19.609375 C 6.511719 20.125 16 20.125 16 20.125 C 16 20.125 25.488281 20.125 27.855469 19.609375 C 29.160156 19.324219 30.1875 18.523438 30.535156 17.460938 C 31.171875 15.535156 31.171875 11.515625 31.171875 11.515625 C 31.171875 11.515625 31.171875 7.5 30.535156 5.574219 Z M 12.898438 15.164062 L 12.898438 7.871094 L 20.828125 11.515625 Z M 12.898438 15.164062 "/>
</g>
</svg>
