<?xml version="1.0" encoding="UTF-8"?>
<svg xmlns="http://www.w3.org/2000/svg" xmlns:xlink="http://www.w3.org/1999/xlink" width="0px" height="32px" viewBox="0 0 28 32" version="1.1">
<g id="surface1">
<path style=" stroke:none;fill-rule:nonzero;fill:rgb(0%,0%,0%);fill-opacity:1;" d="M 14.007812 8.8125 C 10.03125 8.8125 6.824219 12.019531 6.824219 15.992188 C 6.824219 19.96875 10.03125 23.175781 14.007812 23.175781 C 17.980469 23.175781 21.1875 19.96875 21.1875 15.992188 C 21.1875 12.019531 17.980469 8.8125 14.007812 8.8125 Z M 14.007812 20.664062 C 11.4375 20.664062 9.335938 18.570312 9.335938 15.992188 C 9.335938 13.417969 11.429688 11.324219 14.007812 11.324219 C 16.582031 11.324219 18.675781 13.417969 18.675781 15.992188 C 18.675781 18.570312 16.574219 20.664062 14.007812 20.664062 Z M 23.15625 8.519531 C 23.15625 9.449219 22.40625 10.195312 21.480469 10.195312 C 20.550781 10.195312 19.804688 9.445312 19.804688 8.519531 C 19.804688 7.59375 20.554688 6.84375 21.480469 6.84375 C 22.40625 6.84375 23.15625 7.59375 23.15625 8.519531 Z M 27.914062 10.21875 C 27.804688 7.976562 27.292969 5.988281 25.648438 4.351562 C 24.011719 2.710938 22.023438 2.199219 19.78125 2.085938 C 17.46875 1.957031 10.539062 1.957031 8.226562 2.085938 C 5.988281 2.195312 4 2.707031 2.355469 4.34375 C 0.710938 5.980469 0.207031 7.96875 0.09375 10.210938 C -0.0390625 12.523438 -0.0390625 19.457031 0.09375 21.769531 C 0.199219 24.011719 0.710938 26 2.355469 27.636719 C 4 29.273438 5.980469 29.789062 8.226562 29.898438 C 10.539062 30.03125 17.46875 30.03125 19.78125 29.898438 C 22.023438 29.792969 24.011719 29.28125 25.648438 27.636719 C 27.289062 26 27.800781 24.011719 27.914062 21.769531 C 28.042969 19.457031 28.042969 12.53125 27.914062 10.21875 Z M 24.925781 24.25 C 24.4375 25.476562 23.492188 26.417969 22.261719 26.914062 C 20.417969 27.644531 16.042969 27.476562 14.007812 27.476562 C 11.96875 27.476562 7.585938 27.636719 5.75 26.914062 C 4.523438 26.425781 3.582031 25.480469 3.085938 24.25 C 2.355469 22.40625 2.523438 18.03125 2.523438 15.992188 C 2.523438 13.957031 2.363281 9.574219 3.085938 7.738281 C 3.574219 6.511719 4.519531 5.570312 5.75 5.074219 C 7.59375 4.34375 11.96875 4.511719 14.007812 4.511719 C 16.042969 4.511719 20.425781 4.351562 22.261719 5.074219 C 23.488281 5.5625 24.429688 6.507812 24.925781 7.738281 C 25.65625 9.582031 25.488281 13.957031 25.488281 15.992188 C 25.488281 18.03125 25.65625 22.414062 24.925781 24.25 Z M 24.925781 24.25 "/>
</g>
</svg>
