<?xml version="1.0" encoding="UTF-8"?>
<svg xmlns="http://www.w3.org/2000/svg" xmlns:xlink="http://www.w3.org/1999/xlink" width="31pt" height="28pt" viewBox="0 0 31 28" version="1.1">
<g id="surface1">
<path style=" stroke:none;fill-rule:nonzero;fill:rgb(0%,0%,0%);fill-opacity:1;" d="M 29.582031 6.785156 C 29.242188 5.492188 28.25 4.472656 26.984375 4.128906 C 24.691406 3.5 15.5 3.5 15.5 3.5 C 15.5 3.5 6.308594 3.5 4.015625 4.128906 C 2.75 4.472656 1.757812 5.492188 1.417969 6.785156 C 0.804688 9.128906 0.804688 14.019531 0.804688 14.019531 C 0.804688 14.019531 0.804688 18.914062 1.417969 21.257812 C 1.757812 22.550781 2.75 23.527344 4.015625 23.871094 C 6.308594 24.5 15.5 24.5 15.5 24.5 C 15.5 24.5 24.691406 24.5 26.984375 23.871094 C 28.25 23.527344 29.242188 22.550781 29.582031 21.257812 C 30.195312 18.914062 30.195312 14.019531 30.195312 14.019531 C 30.195312 14.019531 30.195312 9.128906 29.582031 6.785156 Z M 12.492188 18.460938 L 12.492188 9.582031 L 20.175781 14.019531 Z M 12.492188 18.460938 "/>
</g>
</svg>
